# xmcd
#
# Track frame offsets:
#	150
#	11975
#	29256
#	52526
#	67164
#	81594
#	97657
#	113327
#	130475
#	150026
#	169624
#	186896
#
# Disc length: 2683 seconds
#
# Revision: 1
# Processed by: cddbd v1.5.2PL0 Copyright (c) Steve Scherf et al.
# Submitted via: audiograbber 1.83.01
#
DISCID=890a790c
DTITLE=The Mavericks - Icon
DYEAR=2011
DGENRE=Country
TTITLE0=Hey Good Lookin' 
TTITLE1=What a Crying Shame
TTITLE2=I Should Have Been True 
TTITLE3=There Goes My Heart 
TTITLE4=O What a Thrill 
TTITLE5=All That Heaven Will Allow 
TTITLE6=Missing You 
TTITLE7=Here Comes the Rain
TTITLE8=All You Ever Do Is Bring Me Down 	
TTITLE9=Dance the Night Away 
TTITLE10=To Be with You 
TTITLE11=Here Comes My Baby 
EXTD=
EXTT0=
EXTT1=
EXTT2=
EXTT3=
EXTT4=
EXTT5=
EXTT6=
EXTT7=
EXTT8=
EXTT9=
EXTT10=
EXTT11=
PLAYORDER=
